<svg width="35" height="25" viewBox="0 0 35 25" fill="none" xmlns="http://www.w3.org/2000/svg">
<path fill-rule="evenodd" clip-rule="evenodd" d="M34.231 0.769858C34.7234 1.26239 35 1.93031 35 2.62674C35 3.32318 34.7234 3.9911 34.231 4.48363L14.545 24.1696C14.2849 24.4298 13.976 24.6362 13.6361 24.7771C13.2962 24.9179 12.9318 24.9904 12.5638 24.9904C12.1959 24.9904 11.8315 24.9179 11.4916 24.7771C11.1517 24.6362 10.8428 24.4298 10.5826 24.1696L0.801818 14.3905C0.550967 14.1482 0.35088 13.8584 0.213232 13.538C0.075583 13.2176 0.00312958 12.8729 9.91651e-05 12.5242C-0.00293125 12.1754 0.0635222 11.8296 0.195581 11.5068C0.327641 11.184 0.522661 10.8908 0.769264 10.6442C1.01587 10.3976 1.30911 10.2026 1.63189 10.0705C1.95467 9.93846 2.30052 9.872 2.64925 9.87503C2.99799 9.87806 3.34263 9.95052 3.66306 10.0882C3.9835 10.2258 4.27331 10.4259 4.51559 10.6768L12.563 18.7241L30.5155 0.769858C30.7594 0.525794 31.049 0.332182 31.3678 0.200086C31.6865 0.0679902 32.0282 0 32.3733 0C32.7183 0 33.06 0.0679902 33.3787 0.200086C33.6975 0.332182 33.9871 0.525794 34.231 0.769858Z" fill="white"/>
</svg>
