<svg width="71" height="88" viewBox="0 0 71 88" fill="none" xmlns="http://www.w3.org/2000/svg">
<path d="M6.92919 52.3334C3.80277 47.2135 2.15442 41.3282 2.16669 35.3292C2.16669 17.1042 17.0917 2.33337 35.5 2.33337C53.9084 2.33337 68.8334 17.1042 68.8334 35.3292C68.8456 41.3282 67.1973 47.2135 64.0709 52.3334M48 73.1667L47.4584 75.8625C46.875 78.8084 46.5792 80.2792 45.9167 81.4459C44.8958 83.244 43.2429 84.5984 41.2792 85.2459C40.0084 85.6667 38.5 85.6667 35.5 85.6667C32.5 85.6667 30.9917 85.6667 29.7209 85.25C27.7564 84.6016 26.1034 83.2456 25.0834 81.4459C24.4209 80.2792 24.125 78.8084 23.5417 75.8625L23 73.1667M16.2625 65.2417C15.8792 64.0917 15.6875 63.5125 15.7084 63.0459C15.7319 62.5634 15.8948 62.098 16.1773 61.7061C16.4597 61.3142 16.8497 61.0125 17.3 60.8375C17.7334 60.6667 18.3417 60.6667 19.55 60.6667H51.45C52.6625 60.6667 53.2667 60.6667 53.7 60.8334C54.151 61.0086 54.5414 61.3109 54.8239 61.7036C55.1064 62.0964 55.2689 62.5626 55.2917 63.0459C55.3125 63.5125 55.1209 64.0875 54.7375 65.2417C54.0292 67.3709 53.675 68.4375 53.1292 69.3C51.9875 71.1026 50.1979 72.3985 48.1292 72.9209C47.1375 73.1667 46.0209 73.1667 43.7834 73.1667H27.2167C24.9792 73.1667 23.8584 73.1667 22.8709 72.9167C20.8028 72.3954 19.0133 71.101 17.8709 69.3C17.325 68.4375 16.9709 67.3709 16.2625 65.2417Z" stroke="white" stroke-width="3.5" stroke-linecap="round" stroke-linejoin="round"/>
<path d="M36.7834 44.0001L30.6959 25.1626C30.4851 24.5688 30.0928 24.0565 29.5745 23.6983C29.0562 23.34 28.4383 23.1541 27.8084 23.1667C27.1785 23.1541 26.5605 23.34 26.0423 23.6983C25.524 24.0565 25.1316 24.5688 24.9209 25.1626L18.8334 44.0001M48 23.1667V44.0001M21.075 37.7501H34.5375" stroke="white" stroke-width="3.5" stroke-linecap="round" stroke-linejoin="round"/>
</svg>
