<svg width="31" height="30" viewBox="0 0 31 30" fill="none" xmlns="http://www.w3.org/2000/svg">
<path fill-rule="evenodd" clip-rule="evenodd" d="M15.5 28.3333C22.8642 28.3333 28.8333 22.3642 28.8333 15C28.8333 7.63583 22.8642 1.66667 15.5 1.66667C8.13583 1.66667 2.16667 7.63583 2.16667 15C2.16667 22.3642 8.13583 28.3333 15.5 28.3333ZM15.5 30C23.7842 30 30.5 23.2842 30.5 15C30.5 6.71583 23.7842 0 15.5 0C7.21583 0 0.5 6.71583 0.5 15C0.5 23.2842 7.21583 30 15.5 30Z" fill="#FFF3F3"/>
<path fill-rule="evenodd" clip-rule="evenodd" d="M13.2383 12.7075C13.3275 13.0391 13.36 13.4033 13.2517 13.7016C13.2306 13.7594 13.197 13.8118 13.1533 13.8551C13.1096 13.8984 13.0569 13.9314 12.9989 13.9519C12.9409 13.9724 12.8791 13.9798 12.8179 13.9735C12.7567 13.9673 12.6977 13.9476 12.645 13.9158C12.422 13.7757 12.2087 13.6206 12.0067 13.4516L11.8442 13.3183C11.6942 13.1966 11.5492 13.0783 11.3992 12.9658C10.9808 12.6533 10.6492 12.4883 10.3617 12.5025C10.06 12.5175 9.69501 12.7283 9.22668 13.0983C9.09418 13.2025 8.95251 13.3208 8.80585 13.4441C8.48251 13.7141 8.13251 14.0066 7.80001 14.22C7.74115 14.2579 7.67369 14.2803 7.60385 14.2853C7.53402 14.2902 7.46406 14.2775 7.40045 14.2483C7.33684 14.219 7.28161 14.1742 7.23988 14.118C7.19815 14.0618 7.17125 13.996 7.16168 13.9266C7.12001 13.6225 7.18335 13.2425 7.30251 12.8708C7.43893 12.4521 7.63392 12.0548 7.88168 11.6908C8.39835 10.935 9.23668 10.2225 10.3592 10.2691C11.4425 10.315 12.2458 10.95 12.7292 11.6416C12.9725 11.9883 13.145 12.3608 13.2383 12.7075ZM17.6917 12.7075C17.6017 13.0391 17.5692 13.4033 17.6775 13.7016C17.6985 13.7595 17.7321 13.8121 17.7759 13.8554C17.8197 13.8988 17.8725 13.9319 17.9306 13.9524C17.9887 13.9729 18.0506 13.9802 18.1119 13.9739C18.1732 13.9676 18.2323 13.9477 18.285 13.9158C18.5033 13.7841 18.7192 13.6158 18.9225 13.4516L19.0858 13.3183C19.2358 13.1966 19.3808 13.0783 19.5308 12.9658C19.9483 12.6533 20.2808 12.4883 20.5675 12.5025C20.87 12.5175 21.2342 12.7283 21.7033 13.0983C21.835 13.2025 21.9767 13.3208 22.1242 13.4441C22.4467 13.7141 22.7967 14.0066 23.13 14.22C23.1889 14.2577 23.2562 14.28 23.326 14.2848C23.3957 14.2897 23.4655 14.2769 23.529 14.2477C23.5925 14.2185 23.6476 14.1738 23.6893 14.1176C23.731 14.0615 23.7579 13.9959 23.7675 13.9266C23.8092 13.6225 23.7458 13.2425 23.6275 12.8708C23.4911 12.4521 23.2961 12.0548 23.0483 11.6908C22.5317 10.935 21.6925 10.2225 20.57 10.2691C19.4867 10.315 18.6842 10.95 18.2 11.6416C17.9714 11.9656 17.7995 12.326 17.6917 12.7075ZM15.5 25.8333C12.135 25.8333 9.21835 23.2933 7.78501 19.5833L7.74335 19.4758C7.37168 18.4833 8.16668 17.5 9.22751 17.5H21.7733C22.8342 17.5 23.63 18.4833 23.2567 19.4758L23.2158 19.5833C21.7817 23.2933 18.865 25.8333 15.5 25.8333ZM21.5633 19.2266C21.3133 19.8333 21.0225 20.39 20.7008 20.8933H10.2992C10.0089 20.4374 9.75449 19.9595 9.53835 19.4641V19.2266H21.5633Z" fill="#FFF3F3"/>
<path fill-rule="evenodd" clip-rule="evenodd" d="M21.56 22.56C21.7489 22.3139 21.9295 22.0575 22.1017 21.7908C22.5676 21.0624 22.9545 20.2863 23.2558 19.4758C23.575 18.6283 23.0408 17.7867 22.2167 17.5592C22.072 17.5195 21.9225 17.4996 21.7725 17.5H9.22751C9.07742 17.4999 8.92802 17.5201 8.78334 17.56C8.40822 17.662 8.08373 17.8984 7.87167 18.2242C7.75299 18.4079 7.67955 18.6171 7.65739 18.8347C7.63523 19.0522 7.66497 19.272 7.74417 19.4758C7.8284 19.6974 7.91787 19.9169 8.01251 20.1342C8.27139 20.7231 8.56667 21.2753 8.89834 21.7908C9.07056 22.0575 9.25112 22.3136 9.44001 22.5592C11.0017 24.585 13.14 25.8333 15.5 25.8333C17.86 25.8333 19.9983 24.585 21.56 22.56ZM21.5633 19.2267C21.3246 19.8061 21.036 20.3638 20.7008 20.8933H10.2992C10.0089 20.4374 9.75449 19.9596 9.53834 19.4642V19.2267H21.5633Z" fill="#FFF3F3"/>
</svg>
