<svg width="25" height="33" viewBox="0 0 25 33" fill="none" xmlns="http://www.w3.org/2000/svg">
<path d="M4.16667 0C3.0616 0 2.00179 0.434597 1.22039 1.20818C0.438987 1.98177 0 3.03098 0 4.125V28.875C0 29.969 0.438987 31.0182 1.22039 31.7918C2.00179 32.5654 3.0616 33 4.16667 33H23.9583C24.2346 33 24.4996 32.8913 24.6949 32.698C24.8903 32.5046 25 32.2423 25 31.9688C25 31.6952 24.8903 31.4329 24.6949 31.2395C24.4996 31.0461 24.2346 30.9375 23.9583 30.9375H4.16667C3.61413 30.9375 3.08423 30.7202 2.69353 30.3334C2.30283 29.9466 2.08333 29.422 2.08333 28.875H22.9167C23.4692 28.875 23.9991 28.6577 24.3898 28.2709C24.7805 27.8841 25 27.3595 25 26.8125V4.125C25 3.03098 24.561 1.98177 23.7796 1.20818C22.9982 0.434597 21.9384 0 20.8333 0H4.16667ZM14.0625 7.73438C14.0625 8.14463 13.8979 8.53809 13.6049 8.82818C13.3118 9.11828 12.9144 9.28125 12.5 9.28125C12.0856 9.28125 11.6882 9.11828 11.3951 8.82818C11.1021 8.53809 10.9375 8.14463 10.9375 7.73438C10.9375 7.32412 11.1021 6.93066 11.3951 6.64057C11.6882 6.35047 12.0856 6.1875 12.5 6.1875C12.9144 6.1875 13.3118 6.35047 13.6049 6.64057C13.8979 6.93066 14.0625 7.32412 14.0625 7.73438ZM13.5417 21.6562C13.5417 21.9298 13.4319 22.1921 13.2366 22.3855C13.0412 22.5789 12.7763 22.6875 12.5 22.6875C12.2237 22.6875 11.9588 22.5789 11.7634 22.3855C11.5681 22.1921 11.4583 21.9298 11.4583 21.6562V13.4062C11.4583 13.1327 11.5681 12.8704 11.7634 12.677C11.9588 12.4836 12.2237 12.375 12.5 12.375C12.7763 12.375 13.0412 12.4836 13.2366 12.677C13.4319 12.8704 13.5417 13.1327 13.5417 13.4062V21.6562Z" fill="white"/>
</svg>
