<svg width="37" height="37" viewBox="0 0 37 37" fill="none" xmlns="http://www.w3.org/2000/svg">
<path d="M36 8.18813H28.5613C28.4846 8.18813 28.4087 8.17306 28.3379 8.14378C28.2672 8.1145 28.2029 8.07159 28.1488 8.01752C28.0947 7.96344 28.0519 7.89927 28.0228 7.82868C27.9937 7.75809 27.9789 7.68248 27.9793 7.60618C27.9801 7.46577 28.0309 7.33019 28.1228 7.22361L33.4284 1.18862C33.4798 1.12878 33.5438 1.08088 33.6158 1.0483C33.6878 1.01571 33.7662 0.999238 33.8453 1.00003C34.1484 1.00003 34.3948 1.24789 34.3948 1.54964V10.5833M23.5074 10.5806H17.0919V9.22C17.0926 8.75452 17.2294 8.29929 17.4856 7.90986C17.7418 7.52044 18.1063 7.21365 18.5347 7.02693L22.1079 5.47238C22.6024 5.25812 23.0075 4.88074 23.2549 4.40387C23.5024 3.92699 23.5771 3.37978 23.4664 2.85447C23.3558 2.32916 23.0666 1.85789 22.6475 1.52008C22.2284 1.18228 21.7052 0.998608 21.1659 1.00003H19.4984C19.0008 1.00057 18.5156 1.15445 18.1094 1.44053C17.7033 1.7266 17.396 2.13083 17.23 2.59768M19.8693 34.8418C21.2726 35.7411 22.9428 36.1353 24.6024 35.9588C26.262 35.7824 27.811 35.0459 28.9917 33.8718L30.0203 32.8481C30.4766 32.389 30.7325 31.7694 30.7325 31.1238C30.7325 30.4781 30.4766 29.8585 30.0203 29.3995L25.6892 25.1157C25.2326 24.6633 24.6146 24.4093 23.9703 24.4093C23.326 24.4093 22.708 24.6633 22.2514 25.1157C21.7902 25.5698 21.1677 25.8245 20.5189 25.8245C19.8702 25.8245 19.2477 25.5698 18.7865 25.1157L11.8838 18.2455C11.4275 17.7865 11.1716 17.1669 11.1716 16.5213C11.1716 15.8756 11.4275 15.256 11.8838 14.797C12.3383 14.3426 12.5936 13.7274 12.5936 13.0862C12.5936 12.4449 12.3383 11.8298 11.8838 11.3754L7.71506 7.06465C7.25388 6.61055 6.63134 6.35585 5.98261 6.35585C5.33388 6.35585 4.71134 6.61055 4.25016 7.06465L3.22152 8.08844C2.02073 9.24704 1.25549 10.7805 1.05351 12.4328C0.85153 14.0852 1.22503 15.7565 2.11167 17.1679C6.83028 24.1438 12.8603 30.1454 19.8693 34.8418Z" stroke="white" stroke-width="2" stroke-linecap="round" stroke-linejoin="round"/>
</svg>
