<svg width="203" height="199" viewBox="0 0 203 199" fill="none" xmlns="http://www.w3.org/2000/svg">
<g clip-path="url(#clip0_124_110)">
<path d="M217.054 313.296L215.125 322.457H211.654L214.209 310.403H217.681L217.372 311.898C218.079 311.3 218.635 310.901 219.04 310.702C219.452 310.503 219.866 310.403 220.284 310.403C220.786 310.403 221.187 310.577 221.49 310.924C221.798 311.265 221.952 311.692 221.952 312.206C221.952 312.708 221.792 313.126 221.47 313.46C221.149 313.801 220.731 313.971 220.217 313.971C219.94 313.971 219.725 313.907 219.571 313.778C219.423 313.65 219.317 313.383 219.252 312.978C219.201 312.721 219.143 312.557 219.079 312.486C219.015 312.415 218.928 312.38 218.818 312.38C218.542 312.38 218.285 312.435 218.047 312.544C217.803 312.66 217.472 312.91 217.054 313.296ZM159.953 6.71458C156.244 6.69827 152.584 7.57311 149.283 9.26551C145.982 10.9579 143.135 13.4184 140.983 16.4399C138.831 19.4614 137.435 22.9557 136.915 26.6287C136.394 30.3017 136.763 34.0461 137.991 37.5468L103.568 71.969C100.041 70.4536 96.1923 69.8386 92.3683 70.1793C88.5443 70.5199 84.8649 71.8056 81.661 73.9208C78.457 76.0359 75.8289 78.9141 74.0131 82.2967C72.1972 85.6792 71.2504 89.46 71.2579 93.2991C71.249 96.3522 71.8438 99.3769 73.008 102.199C74.1723 105.022 75.883 107.586 78.0419 109.745C80.2008 111.904 82.7651 113.615 85.5875 114.779C88.4099 115.943 91.4346 116.538 94.4877 116.529C98.7415 116.545 102.918 115.389 106.558 113.189C110.199 110.988 113.163 107.828 115.126 104.054C117.089 100.28 117.975 96.039 117.688 91.7949C117.4 87.5508 115.949 83.4679 113.494 79.9939L145.382 48.1058C149.529 51.3893 154.663 53.1754 159.952 53.1741C172.835 53.1741 183.182 42.8272 183.182 29.9443C183.182 17.0614 172.836 6.71458 159.953 6.71458ZM94.4877 103.857C88.5756 103.857 83.9287 99.2112 83.9287 93.2982C83.9287 87.3852 88.5756 82.7392 94.4877 82.7392C100.4 82.7392 105.047 87.3852 105.047 93.2982C105.047 99.2112 100.402 103.857 94.4877 103.857ZM159.953 40.5033C154.041 40.5033 149.394 35.8574 149.394 29.9443C149.394 24.0313 154.041 19.3853 159.953 19.3853C165.865 19.3853 170.512 24.0313 170.512 29.9443C170.512 35.8574 165.867 40.5033 159.953 40.5033Z" fill="#FFF629"/>
<path d="M94.4877 53.1741C107.37 53.1741 117.717 42.8273 117.717 29.9443C117.717 17.0614 107.369 6.7146 94.4877 6.7146C81.6067 6.7146 71.258 17.0624 71.258 29.9443C71.258 42.8263 81.6048 53.1741 94.4877 53.1741ZM94.4877 19.3854C100.401 19.3854 105.047 24.0313 105.047 29.9443C105.047 35.8574 100.401 40.5033 94.4877 40.5033C88.5747 40.5033 83.9287 35.8574 83.9287 29.9443C83.9287 24.0313 88.5747 19.3854 94.4877 19.3854ZM159.953 70.0685C147.07 70.0685 136.724 80.4163 136.724 93.2982C136.724 106.18 147.07 116.528 159.953 116.528C172.836 116.528 183.183 106.181 183.183 93.2982C183.183 80.4153 172.835 70.0685 159.953 70.0685ZM159.953 103.857C154.04 103.857 149.394 99.2112 149.394 93.2982C149.394 87.3852 154.04 82.7392 159.953 82.7392C165.866 82.7392 170.512 87.3852 170.512 93.2982C170.512 99.2112 165.866 103.857 159.953 103.857ZM29.0221 179.882C41.904 179.882 52.2518 169.535 52.2518 156.652C52.2518 143.769 41.904 133.422 29.0221 133.422C16.1401 133.422 5.79236 143.77 5.79236 156.652C5.79236 169.534 16.1392 179.882 29.0221 179.882ZM29.0221 146.093C34.9351 146.093 39.5811 150.739 39.5811 156.652C39.5811 162.565 34.9351 167.211 29.0221 167.211C23.109 167.211 18.4631 162.565 18.4631 156.652C18.4631 150.739 23.109 146.093 29.0221 146.093Z" fill="#FFF629"/>
<path d="M159.953 133.422C149.394 133.422 140.314 140.601 137.568 150.317H116.662C115.549 146.417 113.439 142.876 110.539 140.041C107.639 137.207 104.051 135.178 100.127 134.154C96.2037 133.131 92.0811 133.148 88.1664 134.204C84.2516 135.261 80.6801 137.32 77.8044 140.179L46.1275 108.502C50.139 104.491 52.2508 99.2103 52.2508 93.2972C52.2508 82.7383 45.0717 73.6575 35.3564 70.9122V52.1182C45.0717 49.3719 52.2508 40.5024 52.2508 29.7322C52.2597 26.6792 51.6649 23.6546 50.5008 20.8323C49.3366 18.0099 47.6259 15.4456 45.4672 13.2868C43.3084 11.1279 40.7442 9.41716 37.9219 8.25285C35.0996 7.08855 32.075 6.49368 29.022 6.50246C23.3675 6.47555 17.8956 8.50268 13.6234 12.207C9.35117 15.9114 6.56936 21.041 5.79499 26.6423C5.02062 32.2435 6.3064 37.9355 9.41331 42.66C12.5202 47.3845 17.2369 50.8202 22.6866 52.3284V71.1234C12.9733 73.6575 5.79228 82.7383 5.79228 93.2972C5.78337 96.3503 6.37811 99.375 7.54235 102.197C8.7066 105.02 10.4174 107.584 12.5762 109.743C14.7351 111.902 17.2995 113.613 20.1219 114.777C22.9442 115.941 25.9689 116.536 29.022 116.527C31.3459 116.527 33.4578 116.105 35.5696 115.682L71.8924 152.005C71.47 153.483 71.2589 154.962 71.2589 156.651C71.25 159.704 71.8447 162.729 73.0089 165.551C74.1732 168.374 75.884 170.938 78.0428 173.097C80.2017 175.256 82.7661 176.966 85.5884 178.131C88.4108 179.295 91.4355 179.89 94.4886 179.881C105.048 179.881 114.128 172.701 116.874 162.986H137.779C140.526 172.701 149.395 179.881 160.165 179.881C173.047 179.881 183.395 169.534 183.395 156.651C183.395 143.768 172.836 133.421 159.953 133.421M18.463 29.9444C18.463 24.0313 23.1099 19.3854 29.022 19.3854C34.9341 19.3854 39.581 24.0313 39.581 29.9444C39.581 35.8574 34.936 40.5033 29.022 40.5033C23.108 40.5033 18.463 35.8574 18.463 29.9444ZM18.463 93.2982C18.463 87.3852 23.1099 82.7392 29.022 82.7392C34.9341 82.7392 39.581 87.3852 39.581 93.2982C39.581 99.2112 34.936 103.857 29.022 103.857C23.108 103.857 18.463 99.2112 18.463 93.2982ZM94.4876 167.211C88.5756 167.211 83.9287 162.565 83.9287 156.652C83.9287 150.739 88.5756 146.093 94.4876 146.093C100.4 146.093 105.047 150.739 105.047 156.652C105.047 162.565 100.402 167.211 94.4876 167.211ZM159.953 167.211C154.041 167.211 149.394 162.565 149.394 156.652C149.394 150.739 154.041 146.093 159.953 146.093C165.865 146.093 170.512 150.739 170.512 156.652C170.512 162.565 165.867 167.211 159.953 167.211Z" fill="#FFF629"/>
</g>
<defs>
<clipPath id="clip0_124_110">
<rect width="203" height="199" fill="white"/>
</clipPath>
</defs>
</svg>
