<svg width="21" height="21" viewBox="0 0 21 21" fill="none" xmlns="http://www.w3.org/2000/svg">
<path d="M0.0504979 9.2817C0.0504979 9.2817 -0.442783 12.8842 1.65409 16.0604C3.37284 18.6626 6.10909 20.4106 9.9144 20.4914C13.5169 20.567 16.1707 19.3158 18.2039 16.8322C20.9402 13.4892 20.5157 9.79904 20.5157 9.33154C20.5157 8.5306 19.0341 12.9444 19.0341 12.9444L14.861 18.3756L8.74394 19.4911C8.74394 19.4911 3.85581 17.3478 3.82659 17.2326C3.79737 17.1175 0.0504979 9.2817 0.0504979 9.2817Z" fill="#FFF629"/>
<path d="M10.4145 0.000220625C3.79733 -0.0393106 -0.140328 5.24069 0.0504534 10.0583C0.241235 14.8777 3.98983 19.9635 10.2994 19.8879C16.6089 19.8105 20.3764 14.5512 20.519 9.91397C20.6617 5.27678 16.6862 0.0397519 10.4145 0.000220625ZM10.4919 18.1279C6.7828 18.2808 2.11639 15.3366 2.23155 10.2869C2.3467 5.23897 6.17264 2.39444 10.0725 2.29303C13.0167 2.21569 18.2572 4.31944 18.2572 10.4004C18.2555 15.3005 13.974 17.9852 10.4919 18.1279Z" fill="#002E25"/>
<path d="M1.0113 6.97329C0.942551 7.26376 0.906457 7.57313 1.19177 7.67798C1.47708 7.78282 1.62661 7.36345 1.71599 7.0936C1.80536 6.82376 2.87958 4.58766 4.51239 3.25391C6.28786 1.80329 8.49989 1.30485 8.81443 1.21548C9.12896 1.1261 9.33005 0.909539 9.27849 0.720476C9.21833 0.49532 8.89177 0.503914 8.63396 0.540007C8.41739 0.572664 6.21396 0.780632 3.93318 2.64204C1.72974 4.43985 1.08521 6.65876 1.0113 6.97329Z" fill="#5D76D3"/>
<path d="M7.55108 9.51893C7.59061 9.22158 7.9017 7.84486 8.6253 7.23814C10.1498 5.95768 11.7431 6.71564 12.2192 7.56814C12.6575 8.35189 12.3911 9.07205 13.1061 9.2508C13.8211 9.42955 14.5859 9.29721 14.8128 8.83486C15.1119 8.22471 14.787 7.26393 14.6495 7.10408C14.5103 6.94596 10.5073 5.24268 10.5073 5.24268C10.5073 5.24268 7.45139 6.87033 7.45139 6.92877C7.45139 6.98721 7.21249 9.68736 7.21249 9.68736L7.55108 9.51893ZM4.98499 12.1091C4.98499 12.1091 5.17061 13.4669 6.30842 14.8281C7.20733 15.9041 8.7078 16.4317 10.308 16.4146C14.1253 16.3716 14.9331 13.4274 14.9331 13.0492C14.9331 12.6711 12.3326 14.945 12.3326 14.945L9.97108 14.5686L4.98499 12.1091Z" fill="#FFF629"/>
<path d="M10.1292 4.19048C7.3122 4.17845 4.57595 6.13611 4.81142 10.7578C5.06923 15.8178 9.13751 15.9777 10.2083 15.9966C12.4702 16.0361 14.6925 14.5683 14.9899 12.9011C15.2322 11.5485 14.4742 11.3938 13.8589 11.3938C13.2436 11.3938 12.8861 11.4728 12.5286 12.2669C12.1728 13.061 11.518 14.032 10.2478 13.9925C8.97767 13.953 7.52876 13.1795 7.54939 10.0239C7.57001 6.8683 9.21486 6.22892 10.3991 6.24783C11.6641 6.26845 12.1883 6.73423 12.5355 7.24298C12.8861 7.75689 12.9772 8.4633 13.4842 8.56814C13.9603 8.66783 14.9108 8.59392 14.9297 8.25705C14.9486 7.92017 14.5155 4.21111 10.1292 4.19048Z" fill="#002E25"/>
<path d="M8.66485 5.29429C9.00516 5.61226 8.15782 5.88897 7.4222 6.64179C6.68657 7.3946 6.39095 8.31241 6.09188 8.18179C5.65532 7.98929 5.86501 6.87038 6.75704 5.97663C7.64907 5.08288 8.40188 5.05022 8.66485 5.29429ZM12.3602 13.8434C12.6541 14.0496 13.3931 13.424 13.6922 13.0201C13.9913 12.6162 14.3952 12.0627 13.9311 11.8376C13.467 11.6124 13.168 12.0318 12.8981 12.6162C12.6867 13.0716 11.9545 13.558 12.3602 13.8434Z" fill="#5D76D3"/>
</svg>
