<svg xmlns="http://www.w3.org/2000/svg" xml:space="preserve" data-id="lg_LZg9HkENZd0Qe34CeJ" data-version="1" viewBox="719.5 -0.5 561 335"><g data-padding="20"><g transform="translate(10 5.964)scale(.96429)"><rect width="560" height="82.49" x="346.167" y="-274.32" fill="none" rx="0" ry="0" transform="translate(400.5 485.39)"/><path fill="#012921" d="M752.507 249.205q.07-12.19 6.75-18.87t18.44-6.68h4.74v6.42h-5.62q-8.1 0-12.45 5.37-4.34 5.36-4.49 13.76.15 8.39 4.49 13.76 4.35 5.36 12.45 5.36h5.62v6.43h-4.74q-11.76 0-18.44-6.68t-6.75-18.87m45.92 2.33v23.22h-6.86v-51.1h6.86v21.46h22.19v-21.46h6.86v51.1h-6.86v-23.22Zm45.04 4.53v18.69h-6.5v-32.12q0-7.89 5.08-13.43 5.07-5.55 13.1-5.55h16.72v51.1h-6.87v-44.68h-9.85q-5.33 0-8.51 3.14-3.17 3.14-3.17 10v6.21q4.09-4.31 11.68-4.31h6.64v6.42h-6.64q-4.23 0-6.9 1.03-2.66 1.02-4.78 3.5m47.96-25.99h-12.63v-6.42h32.12v6.42h-12.63v44.68h-6.86Zm32.85 10v34.68h-6.79v-34.82q0-7.52 4.86-12.27 4.85-4.74 12-4.74 7.89 0 11.87 3.98 3.98 3.97 3.98 9.74 0 7.37-6.87 10.59v.29q9.42 2.7 9.42 13.07 0 14.16-16.72 14.16h-9.12v-6.43h9.05q5.04 0 7.37-2.04 2.34-2.04 2.34-6.57 0-3.94-2.52-6.06t-6.82-2.12h-7.23v-6.06h4.67q3.94 0 6.75-2.15t2.81-5.8q0-3.51-2.15-5.84-2.15-2.34-6.97-2.34-4.38 0-7.16 2.74-2.77 2.74-2.77 7.99m76.8 9.35q-.08-4.09-1.21-7.74t-3.28-6.39q-2.16-2.74-5.22-4.34-3.07-1.61-6.94-1.61t-6.93 1.61q-3.07 1.6-5.22 4.34-2.16 2.74-3.29 6.39t-1.2 7.74q.07 4.16 1.2 7.73 1.13 3.58 3.29 6.21 2.15 2.63 5.22 4.16 3.06 1.53 6.93 1.53t6.94-1.53q3.06-1.53 5.22-4.16 2.15-2.63 3.28-6.21 1.13-3.57 1.21-7.73m-40.66 0q.07-6.06 1.82-10.95t4.89-8.36 7.52-5.33 9.78-1.86q5.33 0 9.75 1.86 4.41 1.86 7.55 5.33t4.89 8.36q1.76 4.89 1.83 10.95-.07 6.06-1.79 10.87-1.71 4.82-4.85 8.18t-7.56 5.18q-4.42 1.83-9.82 1.83t-9.82-1.83q-4.41-1.82-7.55-5.18t-4.86-8.18q-1.71-4.81-1.78-10.87m66.86-19.35h-12.63v-6.42h32.12v6.42h-12.62v44.68h-6.87Zm50.3 21.46v23.22h-6.86v-51.1h6.86v21.46h22.19v-21.46h6.86v51.1h-6.86v-23.22Zm67.95 16.79v6.43h-29.05v-38.91q0-5.4 3.43-8.69 2.34-2.19 5.26-2.85 2.92-.65 7.15-.65h13.21v6.42h-14.16q-8.03 0-8.03 6.72v8.32h16.86v6.42h-16.86v16.79Zm7.68-19.12q.07-12.19 6.75-18.87t18.43-6.68h4.75v6.42h-5.62q-8.11 0-12.45 5.37-4.34 5.36-4.49 13.76.15 8.39 4.49 13.76 4.34 5.36 12.45 5.36h5.62v6.43h-4.75q-11.75 0-18.43-6.68t-6.75-18.87m44.82 6.86v18.69h-6.5v-32.12q0-7.89 5.08-13.43 5.07-5.55 13.1-5.55h16.72v51.1h-6.86v-44.68h-9.86q-5.33 0-8.5 3.14-3.18 3.14-3.18 10v6.21q4.09-4.31 11.68-4.31h6.64v6.42h-6.64q-4.23 0-6.9 1.03-2.66 1.02-4.78 3.5m47.96-25.99h-12.63v-6.42h32.12v6.42h-12.63v44.68h-6.86Zm55.12 38.25v6.43h-29.06v-38.91q0-5.4 3.43-8.69 2.34-2.19 5.26-2.85 2.92-.65 7.15-.65h13.22v6.42h-14.17q-8.03 0-8.03 6.72v8.32h16.87v6.42h-16.87v16.79Z"/><rect width="243.615" height="28.25" x="504.36" y="-247.2" fill="none" rx="0" ry="0" transform="translate(400.51 552.91)"/><path fill="#012921" d="M910.997 321.785q0 2.07.73 2.99.72.91 2.27.91 1.43 0 2.71-.66 1.29-.67 2.17-1.84l.57.25q-.82 2.12-2.86 3.39-2.04 1.26-4.26 1.26-2.9 0-4.19-1.46-1.29-1.47-1.29-4.69 0-2.08.53-4.33.52-2.25 1.45-4.02 1.2-2.28 2.91-3.46 1.71-1.19 3.84-1.19 2 0 3.08.86 1.09.86 1.09 2.49 0 1.12-.45 1.71t-1.3.59q-.42 0-.79-.16-.36-.17-.63-.49.45-.23.8-.91.35-.69.35-1.39 0-.73-.4-1.13t-1.13-.4q-1.1 0-2.17 1.34-1.08 1.34-1.88 3.69-.55 1.6-.85 3.34-.3 1.73-.3 3.31"/><path fill="#012921" d="M924.587 325.005q0-.45.11-1.12.11-.68.46-2.15.35-1.43.45-2.05.1-.63.1-1.05 0-.63-.24-.95-.23-.33-.68-.33-.6 0-1.17.72-.56.71-.73 1.48l-1.73 8.13h-3.6l3.63-17 3.7-.5-1.35 6.3q.62-.7 1.35-1.05.72-.35 1.57-.35 1.33 0 2.05.72.73.73.73 2.1 0 .58-.14 1.37-.14.78-.54 2.41-.32 1.27-.42 1.8-.1.52-.1.87 0 .53.25.79t.75.26q.62 0 1.07-.42.45-.43 1.03-1.78h1.05q-.8 2.33-1.94 3.48t-2.71 1.15q-1.4 0-2.18-.76-.77-.77-.77-2.07"/><path fill="#012921" d="M938.947 316.345v.17l.28-1.32h3.6l-1.8 8.5q-.05.22-.08.41-.02.19-.02.39 0 .55.25.81t.77.26q.65 0 1.18-.61.52-.61.85-1.74h1.05q-.8 2.3-2.08 3.47-1.27 1.16-2.95 1.16-1.07 0-1.71-.6t-.74-1.7q-.77 1.15-1.71 1.72-.94.58-2.01.58-1.55 0-2.44-1.05t-.89-2.98q0-1.4.43-2.92.42-1.53 1.17-2.78.93-1.47 2.15-2.26 1.23-.79 2.68-.79.97 0 1.5.34.52.34.52.94m-1.42 6.87 1.2-5.65q0-.37-.28-.66-.27-.29-.75-.29-1.37 0-2.44 2.3-1.06 2.3-1.06 4.55 0 .98.28 1.47.27.48.97.48.65 0 1.26-.62.62-.63.82-1.58"/><path fill="#012921" d="m944.387 316.195.2-1h.82l.75-3.45 3.7-.5-.85 3.95h1.5l-.2 1h-1.5l-1.6 7.5q-.05.22-.07.41-.03.19-.03.39 0 .5.24.71t.79.21q.7 0 1.32-.61.63-.61.93-1.59h1.05q-.8 2.28-2.15 3.45-1.35 1.18-3.1 1.18-1.25 0-1.97-.79-.71-.79-.71-2.21 0-.33.05-.74t.15-.89l1.5-7.02Zm14.61-2.78q0-1.92 1.66-3.2 1.67-1.27 4.12-1.27 1.9 0 2.96.77 1.06.78 1.06 2.23 0 1.12-.56 1.82t-1.49.7q-.35 0-.64-.12-.28-.13-.51-.4.5-.3.81-.9.32-.6.32-1.25 0-.8-.48-1.24-.47-.44-1.37-.44-1.08 0-1.69.6t-.61 1.68q0 .87.45 1.66t1.95 2.11q1.97 1.73 2.6 2.99.62 1.26.62 2.81 0 2.85-1.97 4.55-1.98 1.7-5.05 1.7-2.45 0-3.88-1.12-1.42-1.13-1.42-3.18 0-1.8 1.07-2.95 1.08-1.15 2.6-1.15.95 0 1.55.44t.65 1.21q-1.3 0-2.11.63-.81.62-.81 1.72 0 1.05.65 1.73.65.67 1.75.67 1.3 0 2.1-.9t.8-2.42q0-1.18-.53-2.25-.52-1.08-2.17-2.88-1.5-1.6-1.97-2.51-.46-.91-.46-1.84m22.4 11.6q0-.45.11-1.12.12-.68.47-2.15.35-1.43.45-2.05.1-.63.1-1.05 0-.63-.23-.95-.22-.33-.67-.33-.6 0-1.12.62-.51.61-.83 1.68l-1.7 8.03h-3.6l1.82-8.63q.05-.15.06-.3.02-.15.02-.32 0-.5-.2-.8t-.55-.3q-.65 0-1.18.61-.52.61-.85 1.71l-1.7 8.03h-3.6l2.65-12.5h3.6l-.27 1.3q.62-.73 1.37-1.08t1.68-.35q1.1 0 1.73.54.64.54.84 1.61.7-1.07 1.55-1.6.85-.52 1.93-.52 1.32 0 2.05.72.72.73.72 2.1 0 .58-.14 1.37-.13.78-.53 2.41-.33 1.27-.43 1.8-.1.52-.1.87 0 .53.25.79t.75.26q.63 0 1.08-.42.45-.43 1.02-1.78h1.05q-.8 2.33-1.94 3.48-1.13 1.15-2.71 1.15-1.4 0-2.17-.76-.78-.77-.78-2.07"/><path fill="#012921" d="M995.827 316.345v.17l.27-1.32h3.6l-1.8 8.5q-.05.22-.07.41-.03.19-.03.39 0 .55.25.81t.78.26q.65 0 1.17-.61.53-.61.85-1.74h1.05q-.8 2.3-2.07 3.47-1.28 1.16-2.95 1.16-1.08 0-1.72-.6-.63-.6-.73-1.7-.78 1.15-1.72 1.72-.93.58-2.01.58-1.55 0-2.44-1.05-.88-1.05-.88-2.98 0-1.4.42-2.92.43-1.53 1.18-2.78.92-1.47 2.15-2.26 1.22-.79 2.67-.79.98 0 1.5.34.53.34.53.94m-1.43 6.87 1.2-5.65q0-.37-.27-.66-.28-.29-.75-.29-1.38 0-2.44 2.3t-1.06 4.55q0 .98.27 1.47.28.48.98.48.65 0 1.26-.62.61-.63.81-1.58"/><path fill="#012921" d="m1005.137 318.195-2 9.5h-3.6l2.65-12.5h3.6l-.33 1.55q1.1-.93 1.74-1.24t1.29-.31q.77 0 1.25.54.47.53.47 1.33 0 .78-.5 1.3-.5.53-1.3.53-.42 0-.66-.2t-.34-.83q-.07-.4-.17-.51t-.28-.11q-.42 0-.8.17-.37.18-1.02.78"/><path fill="#012921" d="m1010.247 316.195.2-1h.83l.75-3.45 3.7-.5-.85 3.95h1.5l-.2 1h-1.5l-1.6 7.5q-.05.22-.08.41-.02.19-.02.39 0 .5.23.71.24.21.79.21.7 0 1.33-.61.62-.61.92-1.59h1.05q-.8 2.28-2.15 3.45-1.35 1.18-3.1 1.18-1.25 0-1.96-.79t-.71-2.21q0-.33.05-.74t.15-.89l1.5-7.02Z"/><path fill="#012921" d="M1024.997 317.365q0 2.08-1.7 3.62-1.7 1.53-4.05 1.66-.02.42-.04.64-.01.21-.01.36 0 1.15.39 1.62.39.48 1.41.48 1.18 0 2.16-.54.99-.54 2.27-1.99h.85q-1.45 2.35-3.15 3.49t-3.73 1.14q-1.92 0-2.91-1t-.99-2.98q0-1.42.45-3.02t1.2-2.85q.93-1.5 2.21-2.26 1.29-.77 2.89-.77 1.38 0 2.06.59.69.59.69 1.81m-2.55-1.07q-.85 0-1.71 1.51t-1.29 3.64q1.45-.1 2.54-1.34t1.09-2.79q0-.52-.15-.77t-.48-.25"/><path fill="#012921" d="m1029.797 318.195-2 9.5h-3.6l2.65-12.5h3.6l-.32 1.55q1.1-.93 1.73-1.24.64-.31 1.29-.31.78 0 1.25.54.48.53.48 1.33 0 .78-.5 1.3-.5.53-1.3.53-.43 0-.67-.2-.23-.2-.33-.83-.08-.4-.18-.51t-.27-.11q-.43 0-.8.17-.38.18-1.03.78"/><path fill="#012921" d="M1031.097 328.145q0-.15-.09-.28-.08-.12-.23-.22-.6-.4-.89-.85t-.29-.98q0-.82.58-1.41.57-.59 1.4-.59.77 0 1.23.52.47.51.47 1.38 0 1.23-.92 2.68-.91 1.45-2.33 2.45-.13-.08-.18-.19t-.05-.24q0-.22.13-.46.12-.24.52-.66.4-.43.53-.66.12-.24.12-.49m17.68-18.84 1.97 13.25 2.73-13.55h3.6l-3.98 18.7h-3.02l-2.13-13.08-2.77 13.08h-3.6l3.6-16.98q-1.68.7-2.58 2.1t-.9 3.35q0 .48.06.83.07.35.22.67.05.1.06.14t.01.06q-1.4 0-2.04-.58-.63-.59-.63-1.84 0-1.2.6-2.44t1.65-2.19q1-.92 2.23-1.4 1.24-.47 2.59-.47.98 0 1.46.09.49.08.87.26m6.5 14.55q0-1.43.46-3.03t1.26-2.85q.93-1.47 2.23-2.23 1.3-.77 2.9-.77t2.4 1 .8 3q.05.03.11.04t.16.01q.78 0 1.85-.42 1.08-.43 2-1.08l.23.68q-.7.75-1.87 1.3-1.16.55-2.56.77-.3 3.38-1.95 5.45-1.65 2.08-4.02 2.08-1.95 0-2.98-1-1.02-1-1.02-2.95m7.05-7.35q-1.2 0-2.27 2.42-1.06 2.43-1.06 4.6 0 1.18.26 1.6.27.43 1.02.43.92 0 1.76-1.5t1.14-3.7q-.35-.08-.52-.34-.16-.26-.16-.71 0-.48.2-.83t.58-.52q-.05-.8-.27-1.13-.21-.32-.68-.32"/><path fill="#012921" d="m1067.387 316.195.2-1h.82l.75-3.45 3.7-.5-.85 3.95h1.5l-.2 1h-1.5l-1.6 7.5q-.05.22-.07.41-.03.19-.03.39 0 .5.24.71t.79.21q.7 0 1.32-.61.63-.61.93-1.59h1.05q-.8 2.28-2.15 3.45-1.35 1.18-3.1 1.18-1.25 0-1.97-.79-.71-.79-.71-2.21 0-.33.05-.74t.15-.89l1.5-7.02Zm14.29-5.49q1.27-.83 2.73-1.29 1.47-.46 2.87-.46.17 0 .38.01.22.01.62.04l-1.6 7.45h3.67l1.6-7.45h3.6l-3.97 18.7h-3.6l2-9.4h-3.68l-2 9.4h-3.6l3.63-17q-1.7.7-2.6 2.11t-.9 3.36q0 .48.06.83t.21.67q.05.1.06.14.02.04.02.06-1.4 0-2.04-.58-.64-.59-.64-1.84t.84-2.5 2.34-2.25m20.98 5.64v.17l.28-1.32h3.6l-1.8 8.5q-.05.22-.08.41-.02.19-.02.39 0 .55.25.81t.77.26q.65 0 1.18-.61.52-.61.85-1.74h1.05q-.8 2.3-2.08 3.47-1.27 1.16-2.95 1.16-1.07 0-1.71-.6t-.74-1.7q-.77 1.15-1.71 1.72-.94.58-2.01.58-1.55 0-2.44-1.05t-.89-2.98q0-1.4.43-2.92.42-1.53 1.17-2.78.93-1.47 2.15-2.26 1.23-.79 2.68-.79.97 0 1.5.34.52.34.52.94m-1.42 6.87 1.2-5.65q0-.37-.28-.66-.27-.29-.75-.29-1.37 0-2.44 2.3-1.06 2.3-1.06 4.55 0 .98.28 1.47.27.48.97.48.65 0 1.26-.62.62-.63.82-1.58"/><path fill="#012921" d="m1111.947 318.195-2 9.5h-3.6l2.65-12.5h3.6l-.32 1.55q1.1-.93 1.73-1.24.64-.31 1.29-.31.78 0 1.25.54.48.53.48 1.33 0 .78-.5 1.3-.5.53-1.3.53-.43 0-.67-.2-.23-.2-.33-.83-.08-.4-.18-.51t-.27-.11q-.43 0-.8.17-.38.18-1.03.78m7.53 5.26q0 .98.27 1.47.28.48.98.48.62 0 1.22-.58.6-.59.83-1.49v-.13l1.22-5.72q-.07-.4-.34-.64-.26-.24-.68-.24-1.38 0-2.44 2.3t-1.06 4.55m4.75-7.12v.1l1.22-5.75 3.7-.5-2.87 13.5q-.05.22-.08.41-.02.19-.02.39 0 .5.23.71.24.21.79.21.65 0 1.18-.57.52-.58.85-1.63h1.05q-.78 2.23-2.02 3.35-1.23 1.13-3.01 1.13-1.02 0-1.66-.56-.64-.57-.79-1.59-.75 1.15-1.67 1.72-.93.58-2.03.58-1.55 0-2.44-1.05-.88-1.05-.88-2.98 0-1.4.42-2.92.43-1.53 1.18-2.78.92-1.47 2.15-2.26 1.22-.79 2.67-.79.98 0 1.5.34.53.34.53.94"/><path fill="#012921" d="M1137.547 317.365q0 2.08-1.7 3.62-1.7 1.53-4.05 1.66-.02.42-.04.64-.01.21-.01.36 0 1.15.39 1.62.39.48 1.41.48 1.18 0 2.16-.54.99-.54 2.27-1.99h.85q-1.45 2.35-3.15 3.49t-3.73 1.14q-1.92 0-2.91-1t-.99-2.98q0-1.42.45-3.02t1.2-2.85q.93-1.5 2.21-2.26 1.29-.77 2.89-.77 1.38 0 2.06.59.69.59.69 1.81m-2.55-1.07q-.85 0-1.71 1.51t-1.29 3.64q1.45-.1 2.54-1.34t1.09-2.79q0-.52-.15-.77t-.48-.25"/><path fill="#012921" d="m1142.347 318.195-2 9.5h-3.6l2.65-12.5h3.6l-.32 1.55q1.1-.93 1.73-1.24.64-.31 1.29-.31.78 0 1.25.54.48.53.48 1.33 0 .78-.5 1.3-.5.53-1.3.53-.43 0-.67-.2-.23-.2-.33-.83-.08-.4-.18-.51t-.27-.11q-.43 0-.8.17-.38.18-1.03.78M1083.132.26a24.024 24.024 0 0 0-22.776 31.974l-35.697 35.697a24.024 24.024 0 0 0-33.507 22.12 24.02 24.02 0 0 0 24.09 24.09 24.024 24.024 0 0 0 19.71-37.888l33.069-33.069a24.33 24.33 0 0 0 15.11 5.256c13.36 0 24.09-10.73 24.09-24.09S1096.492.26 1083.132.26M1015.242 101c-6.131 0-10.95-4.818-10.95-10.95s4.819-10.95 10.95-10.95 10.95 4.818 10.95 10.95-4.817 10.95-10.95 10.95m67.89-65.7c-6.131 0-10.95-4.818-10.95-10.95s4.819-10.95 10.95-10.95 10.95 4.818 10.95 10.95-4.817 10.95-10.95 10.95"/><path fill="#012921" d="M1015.242 48.44c13.359 0 24.09-10.73 24.09-24.09S1028.6.26 1015.242.26s-24.09 10.731-24.09 24.09 10.73 24.09 24.09 24.09m0-35.04c6.132 0 10.95 4.818 10.95 10.95s-4.818 10.95-10.95 10.95-10.95-4.818-10.95-10.95 4.818-10.95 10.95-10.95m67.89 52.56c-13.36 0-24.09 10.731-24.09 24.09s10.73 24.09 24.09 24.09 24.09-10.73 24.09-24.09-10.731-24.09-24.09-24.09m0 35.04c-6.132 0-10.95-4.818-10.95-10.95s4.818-10.95 10.95-10.95 10.95 4.818 10.95 10.95-4.818 10.95-10.95 10.95m-135.78 78.84c13.359 0 24.09-10.73 24.09-24.09s-10.731-24.09-24.09-24.09-24.09 10.731-24.09 24.09 10.73 24.09 24.09 24.09m0-35.04c6.132 0 10.95 4.818 10.95 10.95s-4.818 10.95-10.95 10.95-10.95-4.818-10.95-10.95 4.818-10.95 10.95-10.95"/><path fill="#012921" d="M1083.132 131.66c-10.95 0-20.367 7.445-23.214 17.52h-21.681a24.178 24.178 0 0 0-40.296-10.513l-32.85-32.85c4.16-4.16 6.35-9.636 6.35-15.768 0-10.95-7.445-20.367-17.52-23.214v-19.49c10.075-2.848 17.52-12.046 17.52-23.215A24.02 24.02 0 0 0 947.352.04a24.2 24.2 0 0 0-6.57 47.523v19.491c-10.073 2.628-17.52 12.045-17.52 22.995a24.02 24.02 0 0 0 24.09 24.09c2.41 0 4.6-.438 6.79-.876l37.668 37.668c-.438 1.533-.657 3.066-.657 4.818a24.02 24.02 0 0 0 24.09 24.09c10.95 0 20.367-7.446 23.214-17.52h21.68c2.848 10.074 12.046 17.52 23.215 17.52 13.359 0 24.09-10.73 24.09-24.09s-10.95-24.09-24.31-24.09M936.402 24.35c0-6.132 4.819-10.95 10.95-10.95s10.95 4.818 10.95 10.95-4.817 10.95-10.95 10.95-10.95-4.818-10.95-10.95m0 65.7c0-6.132 4.819-10.95 10.95-10.95s10.95 4.818 10.95 10.95-4.817 10.95-10.95 10.95-10.95-4.818-10.95-10.95m78.84 76.65c-6.131 0-10.95-4.818-10.95-10.95s4.819-10.95 10.95-10.95 10.95 4.818 10.95 10.95-4.817 10.95-10.95 10.95m67.89 0c-6.131 0-10.95-4.818-10.95-10.95s4.819-10.95 10.95-10.95 10.95 4.818 10.95 10.95-4.817 10.95-10.95 10.95"/><rect width="62.224" height="42.94" x="595.055" y="-254.545" fill="none" rx="0" ry="0" transform="translate(246.21 385.72)"/><path fill="#012921" d="M858.067 164.575h-13.49v-27.93h12.23v3.72h-8.02v7.72h6.46v3.8h-6.46v8.93h9.28Zm10.7.38q-1.59 0-3.15-.4t-2.78-.99q-1.21-.59-1.82-1.2l2.01-3.61q.42.35 1.31.9.9.55 2.08.97 1.17.41 2.35.41 1.94 0 3.25-.91t1.31-2.66q0-1.44-.76-2.39t-1.99-1.67q-1.24-.73-2.66-1.39-1.43-.67-2.72-1.5-1.48-.99-2.58-2.62-1.11-1.64-1.11-4.22 0-2.55 1.16-4.18 1.16-1.64 3.08-2.45 1.92-.82 4.2-.82 1.82 0 3.12.38 1.29.38 2.16.91.88.53 1.37.95l-2.01 3.46q-.65-.68-1.94-1.27t-2.89-.59q-1.86 0-2.96.85-1.11.86-1.11 2.53 0 1.48.99 2.53.99 1.04 2.53 1.9 1.54.85 3.17 1.73 1.64.87 2.89 2.05 1.03.91 1.75 2.28t.72 3.08q0 2.58-1.2 4.37-1.19 1.78-3.21 2.67-2.01.9-4.56.9m23.07-.38h-4.22v-24.21h-7.14v-3.72h18.58v3.72h-7.22Zm11.86.39q-1.14 0-1.93-.78-.8-.78-.8-1.92 0-1.18.78-1.96t1.95-.78q1.22 0 1.98.78t.76 1.96q0 1.14-.78 1.92t-1.96.78"/><rect width="83.322" height="37.29" x="584.506" y="-251.72" fill="none" rx="0" ry="0" transform="translate(545.73 385.63)"/><path fill="#012921" d="M1149.987 162.925h-16.5l8.15-10.2q.66-.85 1.5-2.09t1.49-2.57q.64-1.34.64-2.5 0-1.81-.97-2.8-.98-.99-2.92-.99-1.36 0-2.28.59-.93.6-1.5 1.39-.58.79-.91 1.42l-3.07-1.65q.63-1.19 1.63-2.39 1.01-1.21 2.53-2.03 1.52-.83 3.69-.83 2.51 0 4.2.89 1.68.89 2.52 2.44t.84 3.53q0 2.12-1.04 4.33t-2.92 4.52l-4.49 5.67h9.41Zm12.34.5q-2.41 0-4.09-.99t-2.74-2.73q-1.06-1.73-1.53-4.02-.48-2.3-.48-4.87 0-2.67.46-4.95t1.48-3.98q1.03-1.7 2.73-2.65 1.7-.96 4.17-.96 3.3 0 5.21 1.62 1.92 1.61 2.76 4.44.84 2.82.84 6.48 0 3.53-.87 6.4-.88 2.87-2.81 4.54t-5.13 1.67m0-3.37q1.49 0 2.43-.79t1.45-2.15q.51-1.35.71-2.98.2-1.64.2-3.32 0-1.85-.2-3.5t-.71-2.93q-.51-1.29-1.45-2.03-.94-.75-2.43-.75-1.48 0-2.44.75-.96.74-1.47 2.03-.51 1.28-.71 2.93t-.2 3.5q0 1.68.2 3.32.2 1.63.71 2.97.51 1.33 1.47 2.14t2.44.81m28.25 2.87h-16.5l8.15-10.2q.66-.85 1.5-2.09t1.49-2.57q.64-1.34.64-2.5 0-1.81-.97-2.8-.98-.99-2.92-.99-1.36 0-2.28.59-.93.6-1.5 1.39-.58.79-.91 1.42l-3.07-1.65q.63-1.19 1.63-2.39 1.01-1.21 2.53-2.03 1.52-.83 3.69-.83 2.51 0 4.2.89 1.68.89 2.52 2.44t.84 3.53q0 2.12-1.04 4.33t-2.92 4.52l-4.49 5.67h9.41Zm16.92 0h-3.86v-6.07h-11.09l6.96-19.01 3.43 1.29-5.24 14.25h5.94l.19-5.51h3.67v5.51h3.36v3.47h-3.36Z"/></g><path fill="transparent" stroke="transparent" d="M720 0h560v334H720z"/></g></svg>